<svg xmlns="http://www.w3.org/2000/svg" viewBox="0 0 1200 360" width="100%" preserveAspectRatio="xMidYMid meet" role="img" aria-label="design-atlas README banner with the tagline and three tags.">
  <title>design-atlas</title>
  <desc>Banner: design-atlas. concept pool → design DNA → standalone sites</desc>
  <!--
    GENERATED by gen_diagram.py - edit the spec, not this file.
    type=banner  loop=12s  (ambient motion: shimmer, rings, drifting particles)
    static-first: title, subtitle and chips are fully visible without animation
  -->
  <defs><filter id="glow" x="-70%" y="-70%" width="240%" height="240%"><feGaussianBlur stdDeviation="3.6"/></filter><radialGradient id="auWarm" cx="50%" cy="50%" r="50%"><stop offset="0%" stop-color="#D97757" stop-opacity="0.34"/><stop offset="100%" stop-color="#D97757" stop-opacity="0"/></radialGradient><radialGradient id="auEmber" cx="50%" cy="50%" r="50%"><stop offset="0%" stop-color="#B85C3C" stop-opacity="0.28"/><stop offset="100%" stop-color="#B85C3C" stop-opacity="0"/></radialGradient><radialGradient id="auAmber" cx="50%" cy="50%" r="50%"><stop offset="0%" stop-color="#F5B095" stop-opacity="0.2"/><stop offset="100%" stop-color="#F5B095" stop-opacity="0"/></radialGradient></defs>
  <rect width="1200" height="360" rx="16" fill="#1F1B16"/>
  <g><ellipse cx="216" cy="129.6" rx="348" ry="230.4" fill="url(#auWarm)"></ellipse><ellipse cx="972" cy="284.4" rx="360" ry="241.2" fill="url(#auEmber)"></ellipse><ellipse cx="588" cy="68.4" rx="276" ry="172.8" fill="url(#auAmber)"></ellipse></g>
  <text x="40" y="50" font-family="'JetBrains Mono','Cascadia Mono','Menlo','Consolas',monospace" font-size="13" fill="#7d6857" letter-spacing="1.6">OPEN SOURCE · MIT</text>
  <linearGradient id="tg" gradientUnits="userSpaceOnUse" x1="80" y1="0" x2="541" y2="0" spreadMethod="repeat"><stop offset="0" stop-color="#B85C3C"/><stop offset="0.35" stop-color="#D97757"/><stop offset="0.5" stop-color="#F5B095"/><stop offset="0.65" stop-color="#D97757"/><stop offset="1" stop-color="#B85C3C"/></linearGradient>
  <circle cx="970" cy="180" r="120" fill="none" stroke="#D97757" stroke-opacity="0.32" stroke-width="1.6" stroke-dasharray="2 10"></circle>
  <circle cx="970" cy="180" r="84" fill="none" stroke="#D97757" stroke-opacity="0.27" stroke-width="1.6" stroke-dasharray="6 8"></circle>
  <circle cx="970" cy="180" r="52" fill="none" stroke="#D97757" stroke-opacity="0.22" stroke-width="1.6" stroke-dasharray="1 7"></circle>
  <circle cx="970" cy="180" r="6" fill="#D97757" filter="url(#glow)"></circle>
  <circle cx="389" cy="54" r="1.7" fill="#F5B095" opacity="0.3"></circle>
  <circle cx="70" cy="183" r="0.9" fill="#F5B095" opacity="0.3"></circle>
  <circle cx="509" cy="298" r="1.0" fill="#F5B095" opacity="0.3"></circle>
  <circle cx="693" cy="143" r="2.2" fill="#F5B095" opacity="0.3"></circle>
  <circle cx="173" cy="42" r="1.2" fill="#F5B095" opacity="0.3"></circle>
  <circle cx="767" cy="134" r="1.6" fill="#F5B095" opacity="0.3"></circle>
  <circle cx="816" cy="154" r="1.2" fill="#F5B095" opacity="0.3"></circle>
  <circle cx="953" cy="252" r="1.1" fill="#F5B095" opacity="0.3"></circle>
  <circle cx="875" cy="104" r="2.2" fill="#F5B095" opacity="0.3"></circle>
  <circle cx="182" cy="176" r="0.9" fill="#F5B095" opacity="0.3"></circle>
  <circle cx="1051" cy="113" r="1.8" fill="#F5B095" opacity="0.3"></circle>
  <circle cx="1008" cy="340" r="1.5" fill="#F5B095" opacity="0.3"></circle>
  <circle cx="777" cy="358" r="2.0" fill="#F5B095" opacity="0.3"></circle>
  <circle cx="27" cy="166" r="1.0" fill="#F5B095" opacity="0.3"></circle>
  <circle cx="155" cy="89" r="1.3" fill="#F5B095" opacity="0.3"></circle>
  <circle cx="659" cy="318" r="1.9" fill="#F5B095" opacity="0.3"></circle>
  <circle cx="431" cy="318" r="2.1" fill="#F5B095" opacity="0.3"></circle>
  <circle cx="280" cy="175" r="1.6" fill="#F5B095" opacity="0.3"></circle>
  <circle cx="443" cy="204" r="2.1" fill="#F5B095" opacity="0.3"></circle>
  <circle cx="811" cy="19" r="2.1" fill="#F5B095" opacity="0.3"></circle>
  <circle cx="471" cy="144" r="0.9" fill="#F5B095" opacity="0.3"></circle>
  <circle cx="251" cy="58" r="1.3" fill="#F5B095" opacity="0.3"></circle>
  <circle cx="122" cy="131" r="0.8" fill="#F5B095" opacity="0.3"></circle>
  <circle cx="303" cy="125" r="1.3" fill="#F5B095" opacity="0.3"></circle>
  <text x="80" y="170.4" font-family="ui-sans-serif,system-ui,-apple-system,'Segoe UI',Roboto,'Helvetica Neue',Arial,sans-serif" font-size="64" font-weight="800" letter-spacing="-1" fill="url(#tg)">design-atlas</text>
  <text x="80" y="216.4" font-family="ui-sans-serif,system-ui,-apple-system,'Segoe UI',Roboto,'Helvetica Neue',Arial,sans-serif" font-size="20" fill="#9c8675">concept pool → design DNA → standalone sites</text>
  <g><rect x="80" y="246.4" width="128" height="32" rx="8" fill="#2a2018" stroke="#5c4a3b" stroke-width="1.1"/><text x="144" y="267.4" text-anchor="middle" font-family="'JetBrains Mono','Cascadia Mono','Menlo','Consolas',monospace" font-size="13" fill="#EAD9CC">502 concepts</text></g>
  <g><rect x="220" y="246.4" width="153" height="32" rx="8" fill="#2a2018" stroke="#5c4a3b" stroke-width="1.1"/><text x="296.5" y="267.4" text-anchor="middle" font-family="'JetBrains Mono','Cascadia Mono','Menlo','Consolas',monospace" font-size="13" fill="#EAD9CC">354 craft terms</text></g>
  <g><rect x="385" y="246.4" width="104" height="32" rx="8" fill="#2a2018" stroke="#5c4a3b" stroke-width="1.1"/><text x="437" y="267.4" text-anchor="middle" font-family="'JetBrains Mono','Cascadia Mono','Menlo','Consolas',monospace" font-size="13" fill="#EAD9CC">zero-shot</text></g>
</svg>
