<svg xmlns="http://www.w3.org/2000/svg" viewBox="0 0 860 280" width="100%" preserveAspectRatio="xMidYMid meet" role="img" aria-label="Logo reveal of design-atlas: a hexagon mark draws on, the wordmark slides in and a shine passes.">
  <title>Diagram</title>
  <desc>Logo reveal: design-atlas</desc>
  <!--
    GENERATED by gen_diagram.py - edit the spec, not this file.
    type=logo  loop=8s  mark=hexagon
    at 0.040..0.300 draw outline
    at 0.300..0.420 fill + initials
    at 0.380..0.520 wordmark
    at 0.500..0.620 tagline
    at 0.620..0.780 shine
    whole lockup fades out at 0.93-0.98 so the loop restarts clean; base state = finished logo
    loop pre-rolled by 6.80s so frame 0 lands in the hold window, fully drawn (static-first)
  -->
  <defs><filter id="glow" x="-70%" y="-70%" width="240%" height="240%"><feGaussianBlur stdDeviation="3.6"/></filter><radialGradient id="auWarm" cx="50%" cy="50%" r="50%"><stop offset="0%" stop-color="#A78BFA" stop-opacity="0.34"/><stop offset="100%" stop-color="#A78BFA" stop-opacity="0"/></radialGradient><radialGradient id="auEmber" cx="50%" cy="50%" r="50%"><stop offset="0%" stop-color="#7C5CE0" stop-opacity="0.28"/><stop offset="100%" stop-color="#7C5CE0" stop-opacity="0"/></radialGradient><radialGradient id="auAmber" cx="50%" cy="50%" r="50%"><stop offset="0%" stop-color="#D4C5FF" stop-opacity="0.2"/><stop offset="100%" stop-color="#D4C5FF" stop-opacity="0"/></radialGradient></defs>
  <rect width="860" height="280" rx="16" fill="#15121F"/>
  <g><ellipse cx="154.8" cy="100.8" rx="249.4" ry="179.2" fill="url(#auWarm)"></ellipse><ellipse cx="696.6" cy="221.2" rx="258" ry="187.6" fill="url(#auEmber)"></ellipse><ellipse cx="421.4" cy="53.2" rx="197.8" ry="134.4" fill="url(#auAmber)"></ellipse></g>
  
  <clipPath id="lmc"><path d="M249.9,84 L298.4,112 L298.4,168 L249.9,196 L201.4,168 L201.4,112 Z"/></clipPath><linearGradient id="lmg" x1="0" y1="0" x2="1" y2="0"><stop offset="0" stop-color="#fff" stop-opacity="0"/><stop offset="0.5" stop-color="#fff" stop-opacity="0.55"/><stop offset="1" stop-color="#fff" stop-opacity="0"/></linearGradient>
  <g id="logo"><path d="M249.9,84 L298.4,112 L298.4,168 L249.9,196 L201.4,168 L201.4,112 Z" fill="#A78BFA" fill-opacity="0.16"></path><path d="M249.9,84 L298.4,112 L298.4,168 L249.9,196 L201.4,168 L201.4,112 Z" pathLength="1" fill="none" stroke="#A78BFA" stroke-width="3.2" stroke-linejoin="round" stroke-linecap="butt"></path><text x="249.9" y="154" text-anchor="middle" font-family="ui-sans-serif,system-ui,-apple-system,'Segoe UI',Roboto,'Helvetica Neue',Arial,sans-serif" font-size="40" font-weight="800" fill="#F8F5FF">DA</text><g clip-path="url(#lmc)"><g><rect x="103.9" y="61.6" width="46" height="156.8" fill="url(#lmg)" transform="rotate(18 249.9 140)"/></g></g><text x="345.9" y="148" font-family="ui-sans-serif,system-ui,-apple-system,'Segoe UI',Roboto,'Helvetica Neue',Arial,sans-serif" font-size="46" font-weight="800" letter-spacing="-0.5" fill="#F8F5FF">design-atlas</text><text x="345.9" y="178" font-family="'JetBrains Mono','Cascadia Mono','Menlo','Consolas',monospace" font-size="14" letter-spacing="3" fill="#9A91C4">CONCEPT POOL</text></g>
</svg>
